<?xml version="1.0" standalone="no"?><!DOCTYPE svg PUBLIC "-//W3C//DTD SVG 1.1//EN" "http://www.w3.org/Graphics/SVG/1.1/DTD/svg11.dtd"><svg t="1664421525633" class="icon" viewBox="0 0 1024 1024" version="1.1" xmlns="http://www.w3.org/2000/svg" p-id="11670" xmlns:xlink="http://www.w3.org/1999/xlink" width="256" height="256"><path d="M554.7 451.7V384c0-23.5-19.2-42.7-42.7-42.7-23.5 0-42.7 19.2-42.7 42.7v85.3c0 0.4 0.2 0.7 0.2 1 0.1 5.2 1.1 10.4 3.1 15.3 1.3 3 3.4 5.4 5.3 8 1.3 1.9 2.1 4.1 3.8 5.8l60.3 60.3c16.6 16.6 43.7 16.6 60.3 0s16.6-43.7 0-60.3l-47.6-47.7z" p-id="11671" fill="#1296db"></path><path d="M853.3 170.7H170.7c-23.5 0-42.7 19.2-42.7 42.7s19.2 42.7 42.7 42.7v370.8c0 54.2 44.3 98.5 98.5 98.5h22.2L260 792.7c-9.9 21.3-0.6 46.8 20.6 56.7 21.3 9.9 46.8 0.6 56.7-20.6l48.2-103.4h253l48.2 103.4c9.9 21.3 35.4 30.6 56.7 20.6 21.3-9.9 30.6-35.4 20.6-56.7l-31.4-67.3h22.2c54.2 0 98.5-44.3 98.5-98.5V256c23.5 0 42.7-19.2 42.7-42.7s-19.2-42.6-42.7-42.6zM512 640c-94.3 0-170.7-76.4-170.7-170.7 0-94.3 76.4-170.7 170.7-170.7S682.7 375 682.7 469.3c0 94.3-76.4 170.7-170.7 170.7z" p-id="11672" fill="#1296db"></path></svg>